HIERARCHY
ROOT Hips
{
	OFFSET 0.00000 0.00000 0.00000
	CHANNELS 6 Xposition Yposition Zposition Zrotation Yrotation Xrotation 
	JOINT LHipJoint
	{
		OFFSET 0 0 0
		CHANNELS 3 Zrotation Yrotation Xrotation
		JOINT LeftUpLeg
		{
			OFFSET 3.13874 -1.57224 1.49786
			CHANNELS 3 Zrotation Yrotation Xrotation
			JOINT LeftLeg
			{
				OFFSET 2.10955 -5.79594 0.00000
				CHANNELS 3 Zrotation Yrotation Xrotation
				JOINT LeftFoot
				{
					OFFSET 2.41843 -6.64458 0.00000
					CHANNELS 3 Zrotation Yrotation Xrotation
					JOINT LeftToeBase
					{
						OFFSET 0.04713 -0.12948 1.66229
						CHANNELS 3 Zrotation Yrotation Xrotation
						End Site
						{
							OFFSET 0.00000 -0.00000 0.85167
						}
					}
				}
			}
		}
	}
	JOINT RHipJoint
	{
		OFFSET 0 0 0
		CHANNELS 3 Zrotation Yrotation Xrotation
		JOINT RightUpLeg
		{
			OFFSET -3.13988 -1.57224 1.49786
			CHANNELS 3 Zrotation Yrotation Xrotation
			JOINT RightLeg
			{
				OFFSET -2.15006 -5.90725 0.00000
				CHANNELS 3 Zrotation Yrotation Xrotation
				JOINT RightFoot
				{
					OFFSET -2.34496 -6.44273 0.00000
					CHANNELS 3 Zrotation Yrotation Xrotation
					JOINT RightToeBase
					{
						OFFSET -0.08699 -0.23900 1.55223
						CHANNELS 3 Zrotation Yrotation Xrotation
						End Site
						{
							OFFSET -0.00000 -0.00000 0.80281
						}
					}
				}
			}
		}
	}
	JOINT LowerBack
	{
		OFFSET 0 0 0
		CHANNELS 3 Zrotation Yrotation Xrotation
		JOINT Spine
		{
			OFFSET 0.01292 1.96517 -0.16495
			CHANNELS 3 Zrotation Yrotation Xrotation
			JOINT Spine1
			{
				OFFSET 0.02122 1.88666 0.19706
				CHANNELS 3 Zrotation Yrotation Xrotation
				JOINT Neck
				{
					OFFSET 0 0 0
					CHANNELS 3 Zrotation Yrotation Xrotation
					JOINT Neck1
					{
						OFFSET -0.01683 1.81591 0.07903
						CHANNELS 3 Zrotation Yrotation Xrotation
						JOINT Head
						{
							OFFSET 0.00815 1.74013 -0.47700
							CHANNELS 3 Zrotation Yrotation Xrotation
							End Site
							{
								OFFSET -0.00204 1.83225 -0.16933
							}
						}
					}
				}
				JOINT LeftShoulder
				{
					OFFSET 0 0 0
					CHANNELS 3 Zrotation Yrotation Xrotation
					JOINT LeftArm
					{
						OFFSET 3.38482 1.41533 0.19802
						CHANNELS 3 Zrotation Yrotation Xrotation
						JOINT LeftForeArm
						{
							OFFSET 4.32712 -0.00000 0.00000
							CHANNELS 3 Zrotation Yrotation Xrotation
							JOINT LeftHand
							{
								OFFSET 3.28587 -0.00000 -0.00000
								CHANNELS 3 Zrotation Yrotation Xrotation
								JOINT LeftFingerBase
								{
									OFFSET 0 0 0
									CHANNELS 3 Zrotation Yrotation Xrotation
									JOINT LeftHandIndex1
									{
										OFFSET 0.43316 -0.00000 -0.00000
										CHANNELS 3 Zrotation Yrotation Xrotation
										End Site
										{
											OFFSET 0.34922 -0.00000 -0.00000
										}
									}
								}
								JOINT LThumb
								{
									OFFSET 0 0 0
									CHANNELS 3 Zrotation Yrotation Xrotation
									End Site
									{
										OFFSET 0.35456 -0.00000 0.35456
									}
								}
							}
						}
					}
				}
				JOINT RightShoulder
				{
					OFFSET 0 0 0
					CHANNELS 3 Zrotation Yrotation Xrotation
					JOINT RightArm
					{
						OFFSET -3.09725 1.62858 -0.14144
						CHANNELS 3 Zrotation Yrotation Xrotation
						JOINT RightForeArm
						{
							OFFSET -4.29104 -0.00000 0.00000
							CHANNELS 3 Zrotation Yrotation Xrotation
							JOINT RightHand
							{
								OFFSET -3.22720 -0.00000 -0.00000
								CHANNELS 3 Zrotation Yrotation Xrotation
								JOINT RightFingerBase
								{
									OFFSET 0 0 0
									CHANNELS 3 Zrotation Yrotation Xrotation
									JOINT RightHandIndex1
									{
										OFFSET -0.54362 -0.00000 -0.00000
										CHANNELS 3 Zrotation Yrotation Xrotation
										End Site
										{
											OFFSET -0.43828 -0.00000 -0.00000
										}
									}
								}
								JOINT RThumb
								{
									OFFSET 0 0 0
									CHANNELS 3 Zrotation Yrotation Xrotation
									End Site
									{
										OFFSET -0.44497 -0.00000 0.44497
									}
								}
							}
						}
					}
				}
			}
		}
	}
}
MOTION
Frames: 12
Frame Time: .0083333
-25.0203 15.3919 -4.9147 0 0 0 0 0 0 -21 0 0 0 0 0 0 0 0 0 0 0 0 0 0 21 0 0 0 0 0 0 0 0 0 0 0 0 0 0 0 0 0 0 0 0 0 0 -16 0 0 21 0 0 11 0 0 0 -8 0 0 0 0 0 0 0 0 0 0 0 0 0 0 0 0 0 0 0 0 8 0 0 0 0 0 0 0 0 0 0 0 0 0 0 0 0 0
-25.0203 15.3919 -4.9147 -113.0240 83.5469 -98.4881 0.0000 0.0000 0.0000 -18.2260 2.5471 -11.5758 10.4772 17.6696 61.0716 1.7929 0.9591 -25.6850 3.5037 -11.4689 -33.8782 0.0000 0.0000 0.0000 38.8474 18.0296 -23.8716 -2.0569 -8.9837 25.7444 -0.8043 0.8472 -16.6816 -1.0489 6.5128 -18.2798 11.0545 -1.3968 13.1610 1.7396 1.0126 -9.4602 -4.4895 -0.6857 -18.5117 -0.2468 -1.2350 -18.9210 -5.8362 0.2228 23.9517 -2.0185 -0.5487 10.8823 -0.0000 0.0000 0.0000 -78.2339 23.1529 52.0839 93.2600 -59.9598 -62.8228 -0.0000 -0.0000 12.8588 38.3607 27.3198 19.9637 -7.1250 0.0000 -0.0000 10.4302 63.0623 4.5993 -0.0000 0.0000 0.0000 71.8195 -31.1855 44.9796 -33.0719 43.3852 -13.4714 0.0000 -0.0000 -13.2348 -32.1937 -16.6255 10.2113 7.1250 -0.0000 -0.0000 -4.3344 -49.3660 0.4674
-24.3242 15.3705 -4.9500 -102.1400 82.7893 -86.3463 0.0000 0.0000 0.0000 -16.3033 1.3151 -19.5230 12.1141 18.4385 66.3500 1.9123 -0.0602 -26.1672 5.0953 -13.4903 -41.2328 0.0000 0.0000 0.0000 40.4693 16.9838 -22.0616 -1.9911 -8.8476 25.3197 -0.9882 3.8742 -17.8892 -0.6098 4.9980 -13.9029 11.5625 -0.4572 12.0138 2.3291 2.3663 -9.4760 -4.4398 -0.0146 -17.5557 -1.0812 -1.5878 -19.1773 -6.4329 0.1337 23.4535 -2.1002 -0.7358 10.7558 -0.0000 0.0000 0.0000 -79.1016 25.9813 49.8458 93.0153 -59.9656 -62.6110 -0.0000 -0.0000 13.6269 39.9215 27.0408 20.8276 -7.1250 0.0000 -0.0000 12.6213 63.1947 5.6193 -0.0000 0.0000 0.0000 71.2043 -27.8107 44.1268 -36.3128 45.7271 -15.7460 0.0000 -0.0000 -12.3386 -30.6409 -17.1393 9.9021 7.1250 -0.0000 -0.0000 -2.7233 -49.6799 0.3144
-23.5983 15.4190 -4.9769 -98.2559 83.2612 -82.6890 0.0000 0.0000 0.0000 -16.1355 -0.8414 -24.9783 13.1054 18.8199 69.4524 2.1610 -4.1579 -26.8255 4.8744 -13.2409 -40.2770 0.0000 0.0000 0.0000 40.4887 14.0500 -18.5766 -1.7497 -8.3241 23.7029 -1.0055 6.1169 -17.8943 -0.2871 3.4458 -9.5224 10.9842 -0.2049 13.9333 2.3851 2.9694 -9.9979 -4.2650 0.2110 -19.4440 -1.6242 -1.7450 -19.4221 -6.9410 0.3377 24.3052 -2.1872 -0.7614 11.1380 -0.0000 0.0000 0.0000 -79.5656 31.0131 47.6143 95.1693 -59.8988 -64.4752 -0.0000 -0.0000 13.2522 37.9421 28.4024 20.3475 -7.1250 0.0000 -0.0000 9.7082 64.1667 4.5285 -0.0000 0.0000 0.0000 70.4045 -26.2258 44.0434 -40.4464 48.3322 -18.7720 0.0000 -0.0000 -12.0398 -29.9167 -17.9141 10.0370 7.1250 -0.0000 -0.0000 -1.8929 -50.4237 0.2531
-22.8659 15.4717 -4.9904 -98.5114 84.1303 -83.1340 0.0000 0.0000 0.0000 -16.2235 -4.2859 -29.9092 13.1516 18.8362 69.5956 2.1432 -10.3877 -26.3154 3.9180 -12.0505 -35.9108 0.0000 0.0000 0.0000 39.8108 11.6521 -15.2889 -1.5722 -7.9116 22.4459 -1.0938 7.0769 -18.6758 -0.2938 3.4852 -9.6327 9.2091 0.2220 14.2306 2.5394 3.2031 -9.9550 -3.1772 0.5581 -19.5808 -2.0076 -2.0767 -19.1872 -7.2333 0.0451 23.9652 -2.2601 -0.9533 10.9618 0.0000 -0.0000 0.0000 -80.3077 34.6206 45.5726 98.3778 -59.7331 -67.2489 -0.0000 -0.0000 11.5621 37.9342 27.4848 19.7847 -7.1250 0.0000 -0.0000 9.8254 63.1274 4.3449 0.0000 -0.0000 0.0000 69.8104 -23.9105 43.0007 -45.5928 51.0556 -22.6989 0.0000 -0.0000 -13.1076 -30.6423 -17.6311 10.1723 7.1250 -0.0000 -0.0000 -2.6647 -50.2351 0.3441
-22.1075 15.5375 -4.9967 -100.5600 84.6547 -85.7040 0.0000 0.0000 0.0000 -15.8057 -7.6541 -33.9444 12.9025 18.7467 68.8225 1.4353 -17.6310 -23.1600 2.6103 -10.0357 -29.0925 0.0000 0.0000 0.0000 39.5595 10.1903 -11.2595 -1.4239 -7.5458 21.3427 -1.2151 6.9405 -19.6929 -0.3190 3.6305 -10.0393 7.6418 0.6136 14.4584 2.7561 3.4130 -9.7691 -2.1219 0.8845 -19.5148 -2.2840 -2.5110 -19.0081 -7.4040 -0.4449 23.8458 -2.3412 -1.2152 10.8704 0.0000 0.0000 0.0000 -80.8653 37.8128 44.0582 100.4232 -59.5855 -69.0142 -0.0000 -0.0000 10.4090 38.4191 27.0942 19.8615 -7.1250 0.0000 -0.0000 10.5336 62.8224 4.5861 0.0000 0.0000 0.0000 69.2804 -21.6995 42.1212 -51.3620 53.5303 -27.2657 0.0000 -0.0000 -13.9966 -31.5841 -16.6691 10.0017 7.1250 -0.0000 -0.0000 -3.7191 -49.3100 0.3958
-21.3265 15.6163 -4.9882 -106.4500 85.0469 -92.0003 0.0000 0.0000 0.0000 -15.0466 -11.3317 -37.3325 12.1381 18.4484 66.4258 0.3668 -23.2973 -18.9213 1.9736 -8.8108 -25.2052 0.0000 0.0000 0.0000 39.6220 9.5177 -6.6019 -1.2026 -6.9576 19.5899 -1.2948 5.8540 -20.3768 -0.4295 4.2061 -11.6571 5.9930 0.9682 14.2395 2.9994 3.5210 -9.6278 -0.9461 1.1873 -19.2469 -2.7590 -2.9716 -18.7414 -7.1973 -0.9999 23.9557 -2.2648 -1.4806 10.8490 -0.0000 0.0000 0.0000 -81.1342 40.5208 43.1253 101.0513 -59.5335 -69.5557 -0.0000 -0.0000 8.8902 39.5350 25.2860 19.4197 -7.1250 0.0000 -0.0000 12.1464 61.0603 4.7925 -0.0000 0.0000 0.0000 68.6370 -19.9024 41.3340 -57.3871 55.5725 -32.1763 0.0000 -0.0000 -14.6729 -33.5109 -17.4538 11.2331 7.1250 -0.0000 -0.0000 -5.6085 -50.5572 0.7702
-20.5143 15.7095 -4.9773 -116.4080 85.0664 -102.3170 0.0000 0.0000 0.0000 -14.1791 -14.8898 -39.9821 10.6457 17.7573 61.6256 -0.7840 -27.2686 -14.1840 1.9450 -8.7507 -25.0184 0.0000 0.0000 0.0000 40.1234 9.0944 -1.2236 -0.8726 -5.9558 16.6563 -1.2387 3.7456 -20.1341 -0.5319 4.6733 -12.9790 4.7251 1.1981 13.6220 3.2501 3.5328 -9.5090 0.0652 1.4016 -18.7491 -3.4065 -3.4746 -18.3391 -6.8703 -1.5912 24.1807 -2.1210 -1.7622 10.8521 -0.0000 -0.0000 0.0000 -81.0189 42.9018 42.5130 101.8319 -59.4644 -70.2283 -0.0000 -0.0000 8.5132 40.9031 26.5699 21.1812 -7.1250 0.0000 -0.0000 14.0127 62.9382 6.1663 -0.0000 -0.0000 0.0000 67.8437 -18.6161 40.6841 -63.3467 57.1377 -37.1393 0.0000 -0.0000 -14.3983 -33.7961 -16.3466 10.6686 7.1250 -0.0000 -0.0000 -5.9681 -49.3271 0.6389
-19.6707 15.8112 -4.9809 -125.1890 84.8356 -111.2570 0.0000 0.0000 0.0000 -13.1367 -18.3336 -41.6756 8.6879 16.6026 55.0044 -2.0264 -30.3796 -8.4783 2.4244 -9.6991 -28.0078 0.0000 0.0000 0.0000 40.8893 8.8203 4.1474 -0.5638 -4.8092 13.3650 -1.0080 -0.2769 -19.0826 -0.9747 6.2851 -17.6139 3.9517 1.3860 12.4310 3.4260 3.5680 -9.4318 0.7193 1.5585 -17.9020 -4.2442 -3.9793 -17.7222 -6.5081 -2.1618 24.2896 -1.9206 -2.0416 10.7834 0.0000 -0.0000 0.0000 -80.5076 44.7681 42.2790 101.8046 -59.4669 -70.2048 -0.0000 -0.0000 8.3592 41.5158 26.6941 21.6859 -7.1250 0.0000 -0.0000 14.8912 63.2620 6.6748 0.0000 -0.0000 0.0000 66.9313 -17.8044 40.2148 -69.4842 58.3483 -42.3313 0.0000 -0.0000 -13.5495 -33.1196 -15.7947 10.0692 7.1250 -0.0000 -0.0000 -5.3201 -48.5693 0.4696
-18.8164 15.9210 -5.0033 -135.2820 84.5897 -121.2280 0.0000 0.0000 0.0000 -12.3005 -21.9705 -42.6330 6.5711 14.9598 47.2330 -2.9167 -31.0160 -1.1436 3.4662 -11.4140 -33.6890 0.0000 0.0000 0.0000 41.2518 8.0395 8.4372 -0.3653 -3.8824 10.7459 -0.5808 -4.3146 -16.6156 -1.0491 6.5133 -18.2813 3.2761 1.4696 11.8181 3.4305 3.5791 -9.9270 1.1160 1.6643 -18.1694 -5.1755 -4.3610 -17.3412 -5.8463 -2.5104 25.4558 -1.5989 -2.2093 11.1730 -0.0000 -0.0000 0.0000 -79.6918 46.6993 42.5582 100.8203 -59.5530 -69.3566 -0.0000 -0.0000 8.3838 43.0099 28.3407 23.8853 -7.1250 0.0000 -0.0000 17.2567 65.6153 8.7089 -0.0000 -0.0000 0.0000 65.8835 -18.3543 40.7246 -74.7243 59.0997 -46.8109 0.0000 -0.0000 -11.0502 -33.6279 -14.2069 9.2708 7.1250 -0.0000 -0.0000 -5.8919 -46.8059 0.2635
-17.9435 16.0380 -5.0444 -145.7380 84.0771 -131.6200 0.0000 0.0000 0.0000 -11.7883 -26.1620 -40.8583 4.1213 12.3201 36.8741 -3.1060 -30.1338 4.5395 4.6101 -12.9307 -39.1097 0.0000 0.0000 0.0000 41.0632 6.0063 11.4994 -0.2625 -3.2959 9.1037 -0.0181 -8.3428 -12.2420 -1.6976 8.2055 -23.3400 2.9583 1.4252 9.7160 3.3746 3.3048 -9.6995 1.3473 1.6007 -16.4865 -5.5256 -4.7143 -17.0438 -5.6424 -2.9558 25.7202 -1.5310 -2.4156 11.2243 -0.0000 0.0000 0.0000 -79.0967 47.0081 42.3882 99.1891 -59.6785 -67.9494 -0.0000 -0.0000 8.4840 42.5711 27.8313 23.2132 -7.1250 0.0000 -0.0000 16.5274 64.8939 8.0562 -0.0000 0.0000 0.0000 65.0117 -17.8599 41.1117 -78.9165 59.5307 -50.4165 0.0000 -0.0000 -9.2653 -35.6442 -10.9206 7.7365 7.1250 -0.0000 -0.0000 -7.8087 -43.2001 -0.3491
-17.0455 16.1659 -5.0948 -150.0620 83.4878 -136.2370 0.0000 0.0000 0.0000 -10.4553 -30.8854 -37.6325 2.1313 9.1344 26.2167 -3.0276 -29.1192 9.1873 5.2886 -13.7016 -42.0551 0.0000 0.0000 0.0000 40.7541 3.7072 13.8770 -0.2026 -2.8981 7.9952 0.4578 -12.0083 -6.2463 -1.1745 6.8789 -19.3570 2.9423 1.4082 8.1351 3.4507 3.1946 -9.5418 1.5017 1.5787 -15.2637 -5.7552 -4.9819 -16.8160 -5.5655 -3.2172 26.5610 -1.5195 -2.5463 11.5085 -0.0000 -0.0000 0.0000 -78.4696 47.3834 42.4502 98.0130 -59.7560 -66.9338 -0.0000 -0.0000 8.4581 41.6845 26.9992 22.0115 -7.1250 0.0000 -0.0000 15.1488 63.6653 6.9359 -0.0000 -0.0000 0.0000 64.0381 -17.9500 41.9675 -81.8175 59.7455 -52.9198 0.0000 -0.0000 -8.0346 -36.5005 -9.9461 7.2835 7.1250 -0.0000 -0.0000 -8.5590 -42.1288 -0.6112
